<svg version="1.0" xmlns="http://www.w3.org/2000/svg" width="666.667" height="666.667" viewBox="0 0 500 500"><path d="M233.9 46.5c-.2.2-3.8.6-7.9.9-4.1.3-8.6.8-10 1-1.4.3-3.8.7-5.5 1-9.1 1.4-29.7 6.5-35 8.6-1.1.4-5.8 2.3-10.5 4-12.2 4.7-24 10.4-35.5 17.3-8.7 5.2-11.9 7.4-17.2 11.7-.7.6-1.7 1-2.3 1-.5 0-1 .4-1 1 0 .5-.7 1-1.6 1-.8 0-1.2.4-.9 1 .3.5.2 1-.3 1-1.3 0-8 5.6-16.2 13.5-6.7 6.5-11.2 11.3-17 18.5-2.5 3-5.3 6.3-6.2 7.4-1 1.1-1.8 2.3-1.8 2.6 0 .4-.8 1.6-1.7 2.8-7.9 9.2-23 39.9-27.4 55.5-.7 2.3-1.4 4.6-1.5 5.2-.2.5-.8 3-1.4 5.5-4.4 17.6-5.4 26.3-5.5 46.5 0 14.9.5 23.9 1.9 31 .2 1.1.7 4 1.1 6.5.3 2.5 1 5.8 1.5 7.5.5 1.6 1.1 4.1 1.4 5.5.5 3 5.2 17.5 6.8 21 .6 1.4 1.4 3.4 1.8 4.5 3.3 8.8 17.3 34.5 19.3 35.3.4.2.7.8.7 1.4 0 .6 1 2.3 2.3 3.8 1.2 1.5 3.1 4 4.1 5.4 3.5 4.8 16.4 19.5 20.1 22.8 1.1.9 4.3 3.8 7 6.4 4.8 4.5 26.8 21.4 27.8 21.4.3 0 2.9 1.5 5.7 3.4 10.6 7 41 20.7 51 23.1.8.2 5.8 1.5 11 2.9s11.1 2.8 13 3.1c1.9.3 4.4.7 5.5.9 1.1.3 4.3.7 7 1.1 2.8.3 6.1.9 7.5 1.2 4.1.9 45.4 1.2 50.1.3 2.4-.5 6.7-1 9.4-1.3 13.2-1.4 42.6-9 53-13.7 1.1-.5 4.9-2.1 8.5-3.6 26.5-11.4 52.4-29.3 72-49.9 3.9-4 11.3-12.7 18-21.2 6-7.5 19.5-31.7 25-44.8 2.1-4.8 8-23.8 8.6-27.5.3-1.4.7-3.2.9-4 .3-.8.7-3.2 1.1-5.4.3-2.1.8-4.8 1-6 2.5-10.8 2.4-53.2-.1-61.6-.2-.8-.7-3.1-1-5-3.2-19.1-14.3-48.3-24.1-63.8-1.9-2.9-3.4-5.4-3.4-5.7 0-.7-10.8-15.6-13.6-18.7-1.3-1.5-2.4-3-2.4-3.3 0-.3-1.2-1.8-2.7-3.3-1.6-1.6-5.6-5.8-9.1-9.5s-6.5-6.7-6.7-6.7c-.2 0-2.2-1.7-4.3-3.8-9.1-8.8-29.6-22.9-45.3-31-26.7-13.8-53.2-21.5-85.9-25.1-7.6-.8-38.4-1.4-39.1-.6z"/></svg>