<svg xmlns="http://www.w3.org/2000/svg" width="2200.493" height="400"><defs><clipPath clipPathUnits="userSpaceOnUse" id="a"><path d="M6146.26 2015.75h-11.91c-8.91 13.83-16.33 25.75-19.34 30.69 3.5-9.9 7.48-19.79 11.93-30.69h-22.36c-9.44 23.86-16.42 46.21-21.58 66.17 1.44.13 2.22.16 2.22.16-.9.55-1.79 1.09-2.67 1.6-10.69 41.95-13.3 73.1-13.94 85.18.32.69.62 1.38.93 2.06 4.37-13.25 21.09-63.2 44.03-122.47 12.87-10.9 23.76-21.8 32.69-32.7"/></clipPath><linearGradient x1="0" y1="0" x2="1" y2="0" gradientUnits="userSpaceOnUse" gradientTransform="rotate(135 3473.534 1947.904) scale(8761.42)" spreadMethod="pad" id="b"><stop offset="0" stop-color="#7a3319"/><stop offset=".036" stop-color="#7a3319"/><stop offset=".982" stop-color="#79471a"/><stop offset="1" stop-color="#79471a"/></linearGradient><clipPath clipPathUnits="userSpaceOnUse" id="c"><path d="M8201.73 2354.8h-11.88 11.88"/></clipPath><linearGradient x1="0" y1="0" x2="1" y2="0" gradientUnits="userSpaceOnUse" gradientTransform="rotate(135 3473.534 1947.904) scale(8761.42)" spreadMethod="pad" id="d"><stop offset="0" stop-color="#7a3319"/><stop offset=".036" stop-color="#7a3319"/><stop offset=".982" stop-color="#79471a"/><stop offset="1" stop-color="#79471a"/></linearGradient><clipPath clipPathUnits="userSpaceOnUse" id="e"><path d="M8346.04 2032.49h-.46.46"/></clipPath><linearGradient x1="0" y1="0" x2="1" y2="0" gradientUnits="userSpaceOnUse" gradientTransform="rotate(135 3473.534 1947.904) scale(8761.42)" spreadMethod="pad" id="f"><stop offset="0" stop-color="#7a3319"/><stop offset=".036" stop-color="#7a3319"/><stop offset=".982" stop-color="#79471a"/><stop offset="1" stop-color="#79471a"/></linearGradient><clipPath clipPathUnits="userSpaceOnUse" id="g"><path d="M7998.97 2681.07h-2.96 2.96"/></clipPath><linearGradient x1="0" y1="0" x2="1" y2="0" gradientUnits="userSpaceOnUse" gradientTransform="rotate(135 3473.534 1947.904) scale(8761.42)" spreadMethod="pad" id="h"><stop offset="0" stop-color="#7a3319"/><stop offset=".036" stop-color="#7a3319"/><stop offset=".982" stop-color="#79471a"/><stop offset="1" stop-color="#79471a"/></linearGradient><clipPath clipPathUnits="userSpaceOnUse" id="i"><path d="M6538.43 2418.31h-2.97 2.97"/></clipPath><linearGradient x1="0" y1="0" x2="1" y2="0" gradientUnits="userSpaceOnUse" gradientTransform="rotate(135 3473.534 1947.904) scale(8761.42)" spreadMethod="pad" id="j"><stop offset="0" stop-color="#7a3319"/><stop offset=".036" stop-color="#7a3319"/><stop offset=".982" stop-color="#79471a"/><stop offset="1" stop-color="#79471a"/></linearGradient><clipPath clipPathUnits="userSpaceOnUse" id="k"><path d="M7145.77 2495.56c.98 0 1.97 1 3.44 1-1.47 0-2.46-1-3.44-1"/></clipPath><linearGradient x1="0" y1="0" x2="1" y2="0" gradientUnits="userSpaceOnUse" gradientTransform="rotate(135 3473.534 1947.904) scale(8761.42)" spreadMethod="pad" id="l"><stop offset="0" stop-color="#7a3319"/><stop offset=".036" stop-color="#7a3319"/><stop offset=".982" stop-color="#79471a"/><stop offset="1" stop-color="#79471a"/></linearGradient><clipPath clipPathUnits="userSpaceOnUse" id="m"><path d="M8174.97 2048.45h-.96.96"/></clipPath><linearGradient x1="0" y1="0" x2="1" y2="0" gradientUnits="userSpaceOnUse" gradientTransform="rotate(135 3473.534 1947.904) scale(8761.42)" spreadMethod="pad" id="n"><stop offset="0" stop-color="#7a3319"/><stop offset=".036" stop-color="#7a3319"/><stop offset=".982" stop-color="#79471a"/><stop offset="1" stop-color="#79471a"/></linearGradient><clipPath clipPathUnits="userSpaceOnUse" id="o"><path d="M6241.42 2515.42h-2.99 2.99"/></clipPath><linearGradient x1="0" y1="0" x2="1" y2="0" gradientUnits="userSpaceOnUse" gradientTransform="rotate(135 3473.534 1947.904) scale(8761.42)" spreadMethod="pad" id="p"><stop offset="0" stop-color="#7a3319"/><stop offset=".036" stop-color="#7a3319"/><stop offset=".982" stop-color="#79471a"/><stop offset="1" stop-color="#79471a"/></linearGradient><clipPath clipPathUnits="userSpaceOnUse" id="q"><path d="M6848.76 2592.79c.51 1.01 1.46 1.01 2.99 1.01-1.02 0-2.48 0-2.99-1.01"/></clipPath><linearGradient x1="0" y1="0" x2="1" y2="0" gradientUnits="userSpaceOnUse" gradientTransform="rotate(135 3473.534 1947.904) scale(8761.42)" spreadMethod="pad" id="r"><stop offset="0" stop-color="#7a3319"/><stop offset=".036" stop-color="#7a3319"/><stop offset=".982" stop-color="#79471a"/><stop offset="1" stop-color="#79471a"/></linearGradient><clipPath clipPathUnits="userSpaceOnUse" id="s"><path d="M6911.71 2471.83c-3.95.94-7.93.94-11.39.94 5.43 0 9.92 0 11.39-.94"/></clipPath><linearGradient x1="0" y1="0" x2="1" y2="0" gradientUnits="userSpaceOnUse" gradientTransform="rotate(135 3473.534 1947.904) scale(8761.42)" spreadMethod="pad" id="t"><stop offset="0" stop-color="#7a3319"/><stop offset=".036" stop-color="#7a3319"/><stop offset=".982" stop-color="#79471a"/><stop offset="1" stop-color="#79471a"/></linearGradient><clipPath clipPathUnits="userSpaceOnUse" id="u"><path d="M7400.59 2415.31l1.53.93-1.53-.93"/></clipPath><linearGradient x1="0" y1="0" x2="1" y2="0" gradientUnits="userSpaceOnUse" gradientTransform="rotate(135 3473.534 1947.904) scale(8761.42)" spreadMethod="pad" id="v"><stop offset="0" stop-color="#7a3319"/><stop offset=".036" stop-color="#7a3319"/><stop offset=".982" stop-color="#79471a"/><stop offset="1" stop-color="#79471a"/></linearGradient><clipPath clipPathUnits="userSpaceOnUse" id="w"><path d="M7736.73 2385.34l-1.47.1v.04l1.47-.14"/></clipPath><linearGradient x1="0" y1="0" x2="1" y2="0" gradientUnits="userSpaceOnUse" gradientTransform="rotate(135 3473.534 1947.904) scale(8761.42)" spreadMethod="pad" id="x"><stop offset="0" stop-color="#7a3319"/><stop offset=".036" stop-color="#7a3319"/><stop offset=".982" stop-color="#79471a"/><stop offset="1" stop-color="#79471a"/></linearGradient><clipPath clipPathUnits="userSpaceOnUse" id="y"><path d="M7746.16 2384.48c-3.42 0-6.42.65-9.43.86 4.32-.21 7.73-.86 9.43-.86"/></clipPath><linearGradient x1="0" y1="0" x2="1" y2="0" gradientUnits="userSpaceOnUse" gradientTransform="rotate(135 3473.534 1947.904) scale(8761.42)" spreadMethod="pad" id="z"><stop offset="0" stop-color="#7a3319"/><stop offset=".036" stop-color="#7a3319"/><stop offset=".982" stop-color="#79471a"/><stop offset="1" stop-color="#79471a"/></linearGradient><clipPath clipPathUnits="userSpaceOnUse" id="A"><path d="M7025.75 2517.36l-.49.99s.49 0 .49-.99"/></clipPath><linearGradient x1="0" y1="0" x2="1" y2="0" gradientUnits="userSpaceOnUse" gradientTransform="rotate(135 3473.534 1947.904) scale(8761.42)" spreadMethod="pad" id="B"><stop offset="0" stop-color="#7a3319"/><stop offset=".036" stop-color="#7a3319"/><stop offset=".982" stop-color="#79471a"/><stop offset="1" stop-color="#79471a"/></linearGradient><clipPath clipPathUnits="userSpaceOnUse" id="C"><path d="M7682.68 2505.46c.51 0 1.49 0 3.48 1.02-1.5-1.02-2.48-1.02-3.48-1.02"/></clipPath><linearGradient x1="0" y1="0" x2="1" y2="0" gradientUnits="userSpaceOnUse" gradientTransform="rotate(135 3473.534 1947.904) scale(8761.42)" spreadMethod="pad" id="D"><stop offset="0" stop-color="#7a3319"/><stop offset=".036" stop-color="#7a3319"/><stop offset=".982" stop-color="#79471a"/><stop offset="1" stop-color="#79471a"/></linearGradient><clipPath clipPathUnits="userSpaceOnUse" id="E"><path d="M6572.35 2682.84l-.76 1.25h.51l.25-1.25"/></clipPath><linearGradient x1="0" y1="0" x2="1" y2="0" gradientUnits="userSpaceOnUse" gradientTransform="rotate(135 3473.534 1947.904) scale(8761.42)" spreadMethod="pad" id="F"><stop offset="0" stop-color="#7a3319"/><stop offset=".036" stop-color="#7a3319"/><stop offset=".982" stop-color="#79471a"/><stop offset="1" stop-color="#79471a"/></linearGradient><clipPath clipPathUnits="userSpaceOnUse" id="G"><path d="M7208.23 2374.58c-1.52 0-5.45 1-10.41 1 3.5 0 6.94 0 10.41-1"/></clipPath><linearGradient x1="0" y1="0" x2="1" y2="0" gradientUnits="userSpaceOnUse" gradientTransform="rotate(135 3473.534 1947.904) scale(8761.42)" spreadMethod="pad" id="H"><stop offset="0" stop-color="#7a3319"/><stop offset=".036" stop-color="#7a3319"/><stop offset=".982" stop-color="#79471a"/><stop offset="1" stop-color="#79471a"/></linearGradient><clipPath clipPathUnits="userSpaceOnUse" id="I"><path d="M7562.69 2527.24l-.49 1.01c.49 0 .49 0 .49-1.01"/></clipPath><linearGradient x1="0" y1="0" x2="1" y2="0" gradientUnits="userSpaceOnUse" gradientTransform="rotate(135 3473.534 1947.904) scale(8761.42)" spreadMethod="pad" id="J"><stop offset="0" stop-color="#7a3319"/><stop offset=".036" stop-color="#7a3319"/><stop offset=".982" stop-color="#79471a"/><stop offset="1" stop-color="#79471a"/></linearGradient><clipPath clipPathUnits="userSpaceOnUse" id="K"><path d="M6083 2081.92l-.45 1.76c.88-.51 1.77-1.05 2.67-1.6 0 0-.78-.03-2.22-.16m-14.39 86.94c-.19 3.6-.2 5.51-.2 5.51s.39-1.2 1.13-3.45c-.31-.68-.61-1.37-.93-2.06"/></clipPath><linearGradient x1="0" y1="0" x2="1" y2="0" gradientUnits="userSpaceOnUse" gradientTransform="rotate(135 3473.534 1947.904) scale(8761.42)" spreadMethod="pad" id="L"><stop offset="0" stop-color="#351d14"/><stop offset=".036" stop-color="#351d14"/><stop offset=".982" stop-color="#382316"/><stop offset="1" stop-color="#382316"/></linearGradient></defs><g clip-path="url(#a)" transform="matrix(.13333 0 0 -.13333 1082.095 672.232)"><path d="M6146.26 2015.75h-11.91c-8.91 13.83-16.33 25.75-19.34 30.69 3.5-9.9 7.48-19.79 11.93-30.69h-22.36c-9.44 23.86-16.42 46.21-21.58 66.17 1.44.13 2.22.16 2.22.16-.9.55-1.79 1.09-2.67 1.6-10.69 41.95-13.3 73.1-13.94 85.18.32.69.62 1.38.93 2.06 4.37-13.25 21.09-63.2 44.03-122.47 12.87-10.9 23.76-21.8 32.69-32.7" fill="url(#b)"/></g><g clip-path="url(#c)" transform="matrix(.13333 0 0 -.13333 1082.095 672.232)"><path d="M8201.73 2354.8h-11.88 11.88" fill="url(#d)"/></g><g clip-path="url(#e)" transform="matrix(.13333 0 0 -.13333 1082.095 672.232)"><path d="M8346.04 2032.49h-.46.46" fill="url(#f)"/></g><g clip-path="url(#g)" transform="matrix(.13333 0 0 -.13333 1082.095 672.232)"><path d="M7998.97 2681.07h-2.96 2.96" fill="url(#h)"/></g><g clip-path="url(#i)" transform="matrix(.13333 0 0 -.13333 1082.095 672.232)"><path d="M6538.43 2418.31h-2.97 2.97" fill="url(#j)"/></g><g clip-path="url(#k)" transform="matrix(.13333 0 0 -.13333 1082.095 672.232)"><path d="M7145.77 2495.56c.98 0 1.97 1 3.44 1-1.47 0-2.46-1-3.44-1" fill="url(#l)"/></g><g clip-path="url(#m)" transform="matrix(.13333 0 0 -.13333 1082.095 672.232)"><path d="M8174.97 2048.45h-.96.96" fill="url(#n)"/></g><g clip-path="url(#o)" transform="matrix(.13333 0 0 -.13333 1082.095 672.232)"><path d="M6241.42 2515.42h-2.99 2.99" fill="url(#p)"/></g><g clip-path="url(#q)" transform="matrix(.13333 0 0 -.13333 1082.095 672.232)"><path d="M6848.76 2592.79c.51 1.01 1.46 1.01 2.99 1.01-1.02 0-2.48 0-2.99-1.01" fill="url(#r)"/></g><g clip-path="url(#s)" transform="matrix(.13333 0 0 -.13333 1082.095 672.232)"><path d="M6911.71 2471.83c-3.95.94-7.93.94-11.39.94 5.43 0 9.92 0 11.39-.94" fill="url(#t)"/></g><g clip-path="url(#u)" transform="matrix(.13333 0 0 -.13333 1082.095 672.232)"><path d="M7400.59 2415.31l1.53.93-1.53-.93" fill="url(#v)"/></g><g clip-path="url(#w)" transform="matrix(.13333 0 0 -.13333 1082.095 672.232)"><path d="M7736.73 2385.34l-1.47.1v.04l1.47-.14" fill="url(#x)"/></g><g clip-path="url(#y)" transform="matrix(.13333 0 0 -.13333 1082.095 672.232)"><path d="M7746.16 2384.48c-3.42 0-6.42.65-9.43.86 4.32-.21 7.73-.86 9.43-.86" fill="url(#z)"/></g><g clip-path="url(#A)" transform="matrix(.13333 0 0 -.13333 1082.095 672.232)"><path d="M7025.75 2517.36l-.49.99s.49 0 .49-.99" fill="url(#B)"/></g><g clip-path="url(#C)" transform="matrix(.13333 0 0 -.13333 1082.095 672.232)"><path d="M7682.68 2505.46c.51 0 1.49 0 3.48 1.02-1.5-1.02-2.48-1.02-3.48-1.02" fill="url(#D)"/></g><g clip-path="url(#E)" transform="matrix(.13333 0 0 -.13333 1082.095 672.232)"><path d="M6572.35 2682.84l-.76 1.25h.51l.25-1.25" fill="url(#F)"/></g><g clip-path="url(#G)" transform="matrix(.13333 0 0 -.13333 1082.095 672.232)"><path d="M7208.23 2374.58c-1.52 0-5.45 1-10.41 1 3.5 0 6.94 0 10.41-1" fill="url(#H)"/></g><g clip-path="url(#I)" transform="matrix(.13333 0 0 -.13333 1082.095 672.232)"><path d="M7562.69 2527.24l-.49 1.01c.49 0 .49 0 .49-1.01" fill="url(#J)"/></g><g clip-path="url(#K)" transform="matrix(.13333 0 0 -.13333 1082.095 672.232)"><path d="M6083 2081.92l-.45 1.76c.88-.51 1.77-1.05 2.67-1.6 0 0-.78-.03-2.22-.16m-14.39 86.94c-.19 3.6-.2 5.51-.2 5.51s.39-1.2 1.13-3.45c-.31-.68-.61-1.37-.93-2.06" fill="url(#L)"/></g><path d="M1934.428 371.168l-.533.02a24.923 24.923 0 0 0-2.019-4.354l.363-.394c2.07-2.246 1.927-5.78-.319-7.85l-2.654-2.442c-2.246-2.07-5.776-1.93-7.848.319l-.362.393a24.776 24.776 0 0 0-4.506-1.658l-.024-.534c-.123-3.05-2.718-5.444-5.772-5.32l-3.603.146c-3.056.125-5.45 2.724-5.324 5.774l.023.532a24.686 24.686 0 0 0-4.354 2.019l-.398-.367c-2.246-2.068-5.776-1.922-7.847.32l-2.445 2.658c-2.072 2.242-1.926 5.773.32 7.845l.397.364a24.572 24.572 0 0 0-1.661 4.504l-.535.025c-3.05.122-5.443 2.72-5.32 5.772l.145 3.603c.124 3.053 2.723 5.45 5.774 5.323l.532-.02a25.177 25.177 0 0 0 2.02 4.354l-.364.398c-2.068 2.246-1.927 5.773.318 7.844l2.654 2.448c2.245 2.07 5.777 1.925 7.848-.32l.361-.394c1.436.69 2.94 1.246 4.508 1.656l.023.535c.12 3.05 2.724 5.445 5.773 5.323l3.605-.146c3.05-.128 5.446-2.722 5.322-5.778l-.022-.531a24.896 24.896 0 0 0 4.358-2.019l.39.364c2.247 2.067 5.78 1.928 7.85-.318l2.442-2.655c2.075-2.245 1.928-5.777-.317-7.847l-.392-.364a24.744 24.744 0 0 0 1.656-4.505l.533-.023c3.048-.121 5.447-2.718 5.324-5.772l-.146-3.605c-.128-3.05-2.726-5.447-5.774-5.323" class="wheel-mini wheel-mini-1" fill="#f2f1e8" stroke="#908c6f" stroke-width="1.5"/><path d="M2044.507 366.692l-.532.019a24.692 24.692 0 0 0-2.019-4.355l.364-.394c2.07-2.246 1.928-5.776-.317-7.848l-2.655-2.446c-2.244-2.07-5.776-1.922-7.846.319l-.363.395a24.722 24.722 0 0 0-4.508-1.658l-.021-.533c-.124-3.052-2.719-5.445-5.772-5.323l-3.606.148c-3.053.124-5.445 2.723-5.326 5.775l.022.532a24.696 24.696 0 0 0-4.356 2.02l-.392-.365c-2.245-2.07-5.778-1.928-7.846.322l-2.447 2.65c-2.072 2.246-1.927 5.777.319 7.848l.393.365a24.555 24.555 0 0 0-1.656 4.501l-.535.023c-3.05.124-5.446 2.723-5.324 5.773l.15 3.61c.125 3.052 2.722 5.444 5.773 5.32l.533-.026a24.513 24.513 0 0 0 2.022 4.36l-.367.394c-2.072 2.248-1.927 5.777.317 7.85l2.658 2.443c2.242 2.072 5.774 1.927 7.846-.323l.363-.39a25.097 25.097 0 0 0 4.505 1.658l.022.534c.121 3.052 2.72 5.446 5.773 5.322l3.607-.148c3.053-.126 5.446-2.724 5.322-5.772l-.022-.536a24.7 24.7 0 0 0 4.357-2.016l.393.364c2.247 2.068 5.775 1.924 7.848-.318l2.442-2.655c2.072-2.245 1.93-5.776-.319-7.85l-.39-.36a25.138 25.138 0 0 0 1.658-4.507l.53-.024c3.054-.122 5.45-2.716 5.323-5.772l-.145-3.608c-.125-3.048-2.724-5.443-5.776-5.318" class="wheel-mini wheel-mini-2" fill="#f2f1e8" stroke="#908c6f" stroke-width="1.5"/><path d="M2124.21 372.58l-.352.016a16.083 16.083 0 0 0-1.33-2.873l.24-.26a3.666 3.666 0 0 0-.212-5.17l-1.75-1.609a3.669 3.669 0 0 0-5.168.206l-.238.26a16.534 16.534 0 0 0-2.968-1.092l-.018-.352a3.668 3.668 0 0 0-3.804-3.506l-2.375.096a3.672 3.672 0 0 0-3.51 3.806l.014.35a16.585 16.585 0 0 0-2.87 1.332l-.26-.237a3.667 3.667 0 0 0-5.17.208l-1.61 1.75a3.669 3.669 0 0 0 .206 5.17l.26.237c-.455.946-.821 1.94-1.09 2.97l-.351.014a3.672 3.672 0 0 0-3.508 3.806l.098 2.376a3.666 3.666 0 0 0 3.806 3.506l.35-.012a16.226 16.226 0 0 0 1.331 2.868l-.243.259c-1.36 1.484-1.268 3.81.212 5.173l1.748 1.61a3.667 3.667 0 0 0 5.171-.208l.239-.262a16.52 16.52 0 0 0 2.97 1.095l.012.35a3.674 3.674 0 0 0 3.807 3.507l2.379-.096a3.672 3.672 0 0 0 3.505-3.802l-.013-.355a16.27 16.27 0 0 0 2.87-1.33l.26.24a3.671 3.671 0 0 0 5.17-.209l1.61-1.75a3.664 3.664 0 0 0-.209-5.171l-.257-.237c.453-.947.821-1.942 1.093-2.971l.35-.013a3.67 3.67 0 0 0 3.505-3.807l-.096-2.375a3.668 3.668 0 0 0-3.804-3.508" class="wheel-mini wheel-mini-3" fill="#f2f1e8" stroke="#908c6f" stroke-width="1.5"/><path d="M2180.536 374.826l-.349.014a15.781 15.781 0 0 0-1.333-2.868l.242-.261a3.67 3.67 0 0 0-.212-5.17l-1.748-1.613a3.67 3.67 0 0 0-5.172.212l-.24.26a16.017 16.017 0 0 0-2.966-1.093l-.016-.35a3.667 3.667 0 0 0-3.806-3.509l-2.374.098a3.67 3.67 0 0 0-3.506 3.806l.012.35a16.602 16.602 0 0 0-2.869 1.328l-.263-.24a3.672 3.672 0 0 0-5.169.209l-1.612 1.753a3.666 3.666 0 0 0 .212 5.167l.257.24a16.83 16.83 0 0 0-1.092 2.97l-.352.015a3.667 3.667 0 0 0-3.504 3.806l.095 2.374a3.67 3.67 0 0 0 3.805 3.507l.351-.015a16.55 16.55 0 0 0 1.33 2.875l-.24.259c-1.362 1.476-1.266 3.804.214 5.17l1.744 1.61a3.668 3.668 0 0 0 5.173-.21l.24-.26c.943.456 1.938.823 2.968 1.094l.015.35a3.67 3.67 0 0 0 3.804 3.508l2.376-.097a3.671 3.671 0 0 0 3.508-3.803l-.013-.354a16.002 16.002 0 0 0 2.87-1.33l.26.239a3.668 3.668 0 0 0 5.168-.21l1.612-1.747a3.667 3.667 0 0 0-.21-5.172l-.26-.235a16.26 16.26 0 0 0 1.092-2.975l.353-.013a3.67 3.67 0 0 0 3.507-3.805l-.096-2.372a3.671 3.671 0 0 0-3.806-3.512" class="wheel-mini wheel-mini-4" fill="#f2f1e8" stroke="#908c6f" stroke-width="1.5"/></svg>